<svg version="1.1" viewBox="0 0 16 16" xmlns="http://www.w3.org/2000/svg">
    <path d="m1.9355 1.2559v6.2129h1.2324v-.64258h4.2246v3.1738h1.2148v-3.1738h4.2246v.64258h1.2324v-6.2129h-12.129zm1.2324 1.0078h4.2246v1.2734h-4.2246v-1.2734zm5.4395 0h4.2246v1.2734h-4.2246v-1.2734zm-5.4395 2.2812h4.2246v1.2734h-4.2246v-1.2734zm5.4395 0h4.2246v1.2734h-4.2246v-1.2734zm-4.959 4.4551v5.4316h1.2793c2.1013-.29867 3.9527-1.007 5.5527-2.127.8-.56533 1.4947-1.2015 2.084-1.9082l-.94922-.72461c-.544.64-1.177 1.214-1.9023 1.7207-1.4507 1.0133-3.0465 1.6146-4.7852 1.8066v-4.1992h-1.2793z" fill="#000000"/>
</svg>
