<svg version="1.1" viewBox="0 0 16 16" xmlns="http://www.w3.org/2000/svg">
    <path d="m9.536 5.648h-2.608v4.768q2.176-1.744 2.608-4.768zm4.16 5.072v-5.072h-2.928q-.048.352-.208 1.024 1.856 1.68 3.136 4.048zm-.256 4.288q-.416 0-2.176-.08l-.048-1.072q1.456.08 1.824.08.48 0 .56-.112.096-.128.096-.8v-2.16l-.864.592q-1.184-2.208-2.624-3.616-.816 2.128-2.608 3.584l-.672-.688v4.32h-1.168v-10.448h3.872q.016-.192.016-.576v-1.28h-4.32v-1.04h9.968v1.04h-4.416v1.232q0 .416-.016.624h4.016v8.416q0 1.312-.24 1.648t-1.2.336zm-8.112-11.056v1.04l-1.472.016q1.28 3.072 1.728 4.192l-.848.592q-.56-1.488-.912-2.4v7.856h-1.152v-6.912q-.592 1.984-1.472 3.584l-.736-1.088q1.52-2.736 2.16-5.84h-1.84v-1.04h1.888v-2.72h1.152v2.72z" fill="#000000"/>
</svg>
