<svg version="1.1" viewBox="0 0 16 16" xmlns="http://www.w3.org/2000/svg">
    <path d="m13.44 9.552q-1.344.096-2.72.096-1.184 0-1.536-.336-.352-.352-.352-1.536v-4.288h-2.224q0 1.392-.032 2.176-.016.768-.144 1.536-.112.768-.272 1.152t-.56.848q-.384.464-.816.784-.416.304-1.2.8l-.672-.864q.704-.448 1.024-.672.336-.224.688-.624.368-.416.48-.72t.224-.992q.112-.704.128-1.408t.016-2.016h-2.912v8.88h10.88zm0-1.056v-5.008h-3.456v3.872q0 .912.16 1.072.176.16 1.072.16 1.12 0 2.224-.096zm-12.08-6.064h13.28v11.968h-1.2v-.992h-10.88v.992h-1.2z" fill="#000000"/>
</svg>
