<svg version="1.1" viewBox="0 0 16 16" xmlns="http://www.w3.org/2000/svg">
    <path d="m12.944 9.12 1.2.112q-.064 1.12-.112 1.76-.048.624-.208 1.312-.144.672-.272.992-.128.304-.512.64-.368.336-.72.432-.336.112-1.056.224t-1.408.112q-.672.016-1.856.016-2.416 0-3.728-.24-1.296-.224-1.808-.688-.496-.48-.496-1.344 0-.768.656-1.776.672-1.024 1.664-2t2.304-2.016 2.432-1.824q1.12-.8 2.208-1.472h-8.96v-1.104h11.136v1.104q-.656.288-2.256 1.36-1.584 1.072-3.36 2.448-1.776 1.36-3.12 2.832-1.344 1.456-1.344 2.32 0 .48.304.752.32.256 1.296.4.992.144 2.864.144.896 0 1.328 0t1.04-.048q.608-.064.848-.08t.608-.176q.384-.176.48-.256.112-.096.304-.432.208-.352.24-.56t.128-.768q.096-.576.112-.96t.064-1.216z" fill="#616161"/>
</svg>
